<?xml version="1.0" encoding="UTF-8"?>
<svg id="marks" xmlns="http://www.w3.org/2000/svg" version="1.1" viewBox="0 0 935.35 164.3">
  <!-- Generator: Adobe Illustrator 30.0.0, SVG Export Plug-In . SVG Version: 2.1.1 Build 123)  -->
  <defs>
    <style>
      .st0, .st1, .st2 {
        fill: none;
      }

      .st1 {
        stroke: #3571de;
      }

      .st1, .st2 {
        stroke-miterlimit: 10;
      }

      .st2 {
        stroke: #000;
      }
    </style>
  </defs>
  <path class="st0" d="M364.92,71.66"/>
  <path class="st0" d="M386.24,72.72c-.6-.24-1.84-.71-3.45-1.06-3.69-.79-6.89-.45-9.05,0"/>
  <path class="st0" d="M343.84,31.94c-.1,13.4.03,26.8.41,40.19"/>
  <path class="st0" d="M328.83,72.36c17.97.14,35.94.27,53.92.41"/>
  <path class="st1" d="M860.42,104.43c-.54,13.48-.38,26.99.51,40.46"/>
  <path class="st1" d="M845.46,145.31c17.34-.4,35.79.15,53.13-.24"/>
  <path class="st1" d="M826.84,129.44h6.55"/>
  <path class="st1" d="M887.22,129.25h6.16"/>
  <path class="st1" d="M847.24,133.59c-.45-.99-1.42-1.72-2.49-1.89-.16-.02-.33-.04-.48.02-.27.1-.41.39-.53.65-.48,1.04-.93,2.37-.2,3.25.22.26.52.44.81.61,1.2.71,2.39,1.42,3.59,2.13-.2-.68.51-1.23,1.08-1.64,1.12-.81,2.09-2.02,2.13-3.41.01-.43-.07-.89-.35-1.21-.52-.61-1.53-.54-2.17-.07s-1.01,1.22-1.36,1.94"/>
  <path class="st1" d="M928.55,131.36c.94-.19,1.89.32,2.57.99,1.21,1.22,1.76,3.08,1.41,4.77s-1.02,3.16-2.62,3.79"/>
  <path class="st1" d="M828.37,124.85c21.07.1,43.47.2,64.54.3"/>
  <path class="st1" d="M816.39,144.74"/>
  <path class="st1" d="M929.9,144.96c-.77-.05-3.19-.02-3.95.09"/>
  <path class="st1" d="M833.49,146.94c-.79-.43-1.8-.31-2.55.19s-1.23,1.33-1.44,2.2c-.14.58-.17,1.19-.03,1.77.31,1.34,1.55,2.42,2.91,2.53s2.76-.75,3.28-2.03c.38-.93.14-1.96-.31-2.85-.41-.82-1.03-1.49-2.09-1.9"/>
  <path class="st1" d="M915.95,146.72c-1.62-.56-3.99.06-4.94,1.49s-.81,3.51.33,4.8c1.14,1.29,3.17,1.68,4.7.9.55-.28,1.03-.7,1.33-1.23.56-1,.74-2.88.33-3.96-.44-1.16-1.66-2.19-2.16-2.04"/>
  <path class="st1" d="M894.42,116.53"/>
  <path class="st1" d="M809.18,150.93c-1.21-1.62-.58-5.16,1.26-5.97,1.84-.81,3.96-.45,5.94-.08-1.57-13.12,5.45-26.35,15.97-34.29,12.35-9.31,26.26-12.68,37.2-11.07,2.67.39,7.34,1.11,12.55,3.92,0,0,7.4,3.99,13.02,10.85.84,1.02,3.87,4.56,4.64,4.95,1.3.66,2.65.31,3.03.29,8.14-.54,17.53-.5,22.89,5.68,4.51,5.2,4.42,12.85,4.08,19.74,2.09-.81,4.69.78,5.04,3,.35,2.22-1.51,4.49-3.74,4.69-.84.08-1.64-.18-2.48.38-.71.47-.97,1.22-1.06,1.44-.71,1.82-5.1,7.68-10.51,8.87-4.39.97-10.07-.94-12.28-4.88-1.39-2.48-1.59-5.44-1.71-8.29-.06-1.4-.09-2.84.41-4.14.65-1.67,2.1-2.9,3.65-3.79,3.6-2.07,11.22-4.3,16.56.21.68.57,3.33,2.95,3.95,6.92.98,6.32-4.09,10.77-4.57,11.17-.42.35-6.49,5.33-13.05,2.31-3.87-1.79-6.45-5.69-6.8-10.14-9.15-.4-18.67-.62-28.53-.63-9.79,0-19.24.21-28.33.6-.41,5.6-6.35,9.03-11.82,10.14-3.76.76-7.08.54-10.09-2.43-2.2-2.17-3.94-5.65-3.51-8.71.69-4.95,3.98-9.53,8.56-11.48,4.58-1.96,10.31-1.07,13.9,2.38,1.96,1.88,3.28,4.51,3.32,7.23.06,3.69-2.17,7.11-5.04,9.43-3.64,2.95-8.64,4.46-13.11,3.08-4.47-1.38-8.43-6.02-7.64-10.64-1.41.38-2.34.71-3.75,1.09"/>
  <path class="st1" d="M816.38,144.88c1.85-.08,4.8.31,6.53.09"/>
  <path class="st1" d="M822.39,144.87c.13-2.52.54-6.42,1.73-10.37,2.74-9.09,7.85-14.83,9.66-16.74,1.07-1.12,9.15-9.43,20.78-11.78,7.87-1.59,14.94.01,14.94.01,1.29.3,13.87,3.09,21.12,14.55,2.92,4.62,4.85,9.81,6.11,15.12.61,2.56.5,5.99,1.5,8.38.25.59.56,1,.93,1.27,1.76,1.31,4.21.82,4.95.62"/>
  <path class="st1" d="M897.05,137.4"/>
  <path class="st2" d="M790.45,149.05c.1.07.19.15.25.25.07.11.11.23.13.35.16.82-.3,1.62-.82,2.26-.41.5-.97.91-1.59.5-.48-.32-.73-.93-.56-1.47s.57-1.18.85-1.66c.4-.7,1.12-.69,1.74-.24Z"/>
  <path class="st2" d="M792.97,150.91c.26-.27.66-.38.93-.65.4-.39.46-1.03.77-1.49.36-.54,1.07-.79,1.71-.67s1.18.59,1.46,1.17c.39.79.28,1.84-.35,2.45-.56.55-1.4.7-2.18.66-.15,0-.3-.02-.44.03-.25.09-.4.35-.58.55-.23.26-.57.44-.91.4-1.03-.11-.96-1.91-.42-2.46Z"/>
  <path class="st2" d="M796.86,158.31c-1-.57-1.7-1.77-1.44-2.89.19-.84.83-1.49,1.45-2.08.21-.2.43-.41.69-.54.32-.16.69-.21,1.05-.24,1.09-.12,2.27-.22,3.23.31.39-.97,1.29-1.68,2.27-2.03s2.05-.39,3.1-.33c.54.03,1.21.19,1.33.72.05.21,0,.46.14.62.52-.9,1.55-1.47,2.59-1.44s2.03.65,2.51,1.58c1.03-.31,2.29-.11,2.95.75.48.63.55,1.48.54,2.28,0,.61-.06,1.23-.31,1.79-.27.59-.75,1.06-1.25,1.48-.96.83-2.18,1.62-3.42,1.33-.6-.14-1.11-.52-1.67-.79s-1.23-.43-1.77-.13c-.44.24-.68.73-1.07,1.05-.59.48-1.46.47-2.17.22-1.32-.47-2.5-2-4-1.65-1.61.37-3.18.9-4.75,0Z"/>
  <path class="st2" d="M.38.33c37.84,43.46,93.64,70.7,151.06,73.51,13.23.65,27.53-.3,37.91-8.57,10.38-8.27,13.75-26.19,3.48-34.6-8.8-7.21-23.43-3.19-29.41,6.51-5.97,9.7-4.27,22.79,1.87,32.38,6.14,9.6,16,16.2,26.22,21.18,31.71,15.45,68.14,17.48,103.38,16.81,11.89-.22,24.04-.78,35.09-5.17,11.06-4.39,20.99-13.36,23.48-25.03.86-4.04.78-8.39-.92-12.14-4.56-10.04-18.47-11.84-28.88-8.28-10.03,3.43-19.29,11.38-20.98,21.88-2.55,15.78,12.08,28.89,26.26,36.15,22.8,11.68,48.16,17.25,73.32,21.99,120.32,22.65,243.74,28.6,365.66,17.64"/>
</svg>