<?xml version="1.0" encoding="UTF-8"?>
<svg id="Layer_1" xmlns="http://www.w3.org/2000/svg" version="1.1" viewBox="0 0 287.61 75.71">
  <!-- Generator: Adobe Illustrator 30.0.0, SVG Export Plug-In . SVG Version: 2.1.1 Build 123)  -->
  <defs>
    <style>
      .st0 {
        fill: none;
        stroke: #0086ff;
        stroke-miterlimit: 10;
      }
    </style>
  </defs>
  <path class="st0" d="M22.31,28.12c-4.07-4.36-11.07-6.1-16.3-3.23s-7.36,10.64-3.62,15.28c2.66,3.3,7.22,4.33,11.45,4.64,5.32.38,11.04-.19,15.22-3.5,2.29-1.82,3.93-4.32,5.41-6.84,5.01-8.51,8.74-17.78,11.01-27.39.23-.95.43-1.99.02-2.87s-1.7-1.41-2.39-.72c-.45.45-.45,1.17-.42,1.81.72,14,3.49,27.89,8.21,41.08,2.75-16.83,13.37-31.15,23.66-44.75-4.53,6.23-5.66,14.24-6.29,21.92-.35,4.29-.58,8.68.54,12.83s3.82,8.1,7.83,9.67c1.19.47,2.54.71,3.75.29,2.45-.86,3.22-3.9,3.54-6.48.36-2.96.61-5.94.74-8.92-.8,3.33-1.14,6.76-1.02,10.19.02.69.07,1.39.36,2.01,1.2,2.57,5.46,1.57,6.83-.92s1.01-5.53,1.37-8.34c1.86,10.89,1.53,22.15-.95,32.92-.41,1.77-.92,3.6-2.19,4.9s-3.53,1.79-4.89.6c-.98-.86-1.22-2.28-1.24-3.59-.18-8.43,5.7-15.87,12.48-20.89,4.11-3.04,8.98-5.91,10.46-10.81"/>
  <path class="st0" d="M138.4,27.15c-2.79,1.8-5.81,3.4-9.1,3.89s-6.91-.3-9.21-2.69c-2.47-2.57-3.01-6.59-1.97-10s3.44-6.26,6.17-8.54c6.55-5.46,15.1-8.05,23.58-9,4.83-.54,9.93-.56,14.3,1.57,7.14,3.46,10.72,12.85,7.69,20.19-3.03,7.34-12.19,11.47-19.69,8.89"/>
  <path class="st0" d="M155.3,9.89c-1.88-.34-3.83.67-5.02,2.17s-1.75,3.4-2.07,5.29c-.71,4.17-.38,8.45-.71,12.66s-1.46,8.62-4.49,11.58c-2.72,2.66-6.7,3.79-10.49,3.5s-7.39-1.9-10.49-4.09"/>
  <path class="st0" d="M170.43,38.52c1.33-2.56,2.29-5.33,2.81-8.17.15-.8.1-1.89-.68-2.11-.43-.12-.89.11-1.21.43-1.09,1.08-.92,3.03.11,4.16s2.68,1.53,4.21,1.41c2.89-.24,5.78-2.96,4.95-5.74-.5-1.02-1.91.34-2.09,1.47-.43,2.69-.68,5.42-.73,8.14-.05,2.37.24,5.12,2.22,6.43,1.84,1.22,4.43.55,6.11-.88s2.72-3.45,3.88-5.33c2.28-3.71,6.4-7.42,10.47-5.87-2.26-1.15-5.17-.6-7.08,1.07s-2.83,4.3-2.73,6.83c.07,1.82.74,3.75,2.29,4.7.86.53,1.89.69,2.9.64,4.96-.24,8.54-6.46,6.26-10.87-.17-.33-.37-.65-.64-.91-1.65-1.6-4.7.61-4.41,2.89s2.6,3.79,4.84,4.29,4.6.29,6.84.81c1.47-3.18,2.06-6.76,1.68-10.25-2.48,11.74-.49,23.96-1.52,35.91-.23,2.65-.75,5.55-2.81,7.22-.29.23-.63.44-1,.42-.54-.03-.91-.53-1.19-.99-3.66-6.18-2.39-14.41,1.64-20.35s10.38-9.93,16.93-12.89c1.93-.87,4.02-1.77,5.19-3.54s.8-4.71-1.22-5.36c-.68-.22-1.43-.15-2.11.07-3.23,1.04-4.61,5.42-2.98,8.39s5.52,4.27,8.8,3.41,5.87-3.56,7.22-6.66c.74-1.69,1.32-3.71,2.99-4.5,2.29-1.08,5.09,1.34,5.06,3.87-.06-.88-.11-1.76-.17-2.64-1.53-2.17-5.18-1.69-6.87.36s-1.84,4.96-1.52,7.59c.11.93.29,1.88.8,2.66,1.05,1.59,3.21,2.04,5.12,1.89,7.36-.56,12.64-7.4,15.5-14.21,1.94-4.61,3.24-9.48,3.86-14.44.19-1.53.31-3.14-.28-4.56s-2.09-2.58-3.6-2.28c-1.71.35-2.57,2.23-3.11,3.9-1.15,3.53-2.06,7.13-2.74,10.78-.61,3.28-1.02,6.66-.41,9.94s2.37,6.48,5.25,8.15c1.47.85,3.24,1.27,4.9.89,1.67-.39,3.06-1.55,4.21-2.83,3.29-3.69,5.02-8.74,4.68-13.68-1.16,1.43-.97,3.55-.23,5.23s1.94,3.11,2.76,4.76,1.21,3.69.26,5.27-3.61,2.02-4.56.45c2,2.1,5.08,3.11,7.93,2.59s5.39-2.55,6.52-5.22"/>
  <path class="st0" d="M211.73,23.49c1,.2,2.09-.61,2.19-1.62s-.8-2.03-1.82-2.04-1.94.98-1.86,2c.07.83.7,1.52,1.44,1.89s1.59.44,2.42.46"/>
  <path class="st0" d="M241.87,15.89c13.14-.02,26.28-.04,39.42-.06,2.16,0,4.66-.18,5.91-1.94"/>
</svg>