<?xml version="1.0" encoding="UTF-8"?>
<svg id="Layer_1" xmlns="http://www.w3.org/2000/svg" version="1.1" viewBox="0 0 331.21 189.31">
  <!-- Generator: Adobe Illustrator 30.0.0, SVG Export Plug-In . SVG Version: 2.1.1 Build 123)  -->
  <defs>
    <style>
      .st0 {
        fill: none;
        stroke: #000;
        stroke-miterlimit: 10;
      }
    </style>
  </defs>
  <g id="Layer_11" data-name="Layer_1">
    <path class="st0" d="M66.8,7.46c.18-.29.68-1.2.5-2.36-.16-1.03-.77-1.68-1.12-2.05-.75-.79-1.56-1.11-2.53-1.48-.77-.29-1.98-.75-3.67-.84-.56-.03-5.62-.33-7.43,2.53-.16.26-.55.89-.56,1.73,0,1.4,1.02,2.41,1.46,2.83,2.47,2.41,7.15,2.61,10.98,1.2.84-.31,1.73-1.33,2.52-1.48,1.02-.2,9.13,3.73,12.25,4.25-.25,3.19-.12,6.41.37,9.58-4.82-.31-9.53,1.33-13.77,3.64-1.53.83-3.01,1.86-3.94,3.32-1.21,1.9-1.33,4.27-1.39,6.52-.25,8.63-.2,17.27.15,25.89.12,2.87,1.56,5.85,4.01,7.34s5.42,1.85,8.28,2.1c10.88.96,46.82.02,53.93-.05s14.38-.85,20.8-3.91c2.74-1.31,5.47-3.28,6.25-6.21.32-1.2.28-2.47.19-3.71-.21-2.89-.89-19.29-.81-24.61.02-1,.03-2.03-.38-2.94-.32-.72-.88-1.3-1.47-1.83-2.85-2.54-6.53-3.98-10.27-4.69-3.74-.71-7.58-.73-11.39-.72-17.73.06-35.45.02-53.17.02"/>
    <path class="st0" d="M80.83,26.61c-2.27-.26-4.59-.15-6.83.33-1.38.3-2.85.83-3.57,2.05-.45.77-.52,1.69-.58,2.57-.64,9.65-.76,19.33-.36,28.99.04,1.07.66,3.03,2.3,4.27,1.83,1.39,4.18,1.13,4.93,1.05,1.24-.13,11.37-.17,31.63-.27,0,0,21.57-.1,29.16-.51.41-.02,1.99-.12,3.85-.82.69-.26,1.25-.47,1.75-.86,1.62-1.27,1.69-3.74,1.71-4.89.11-6.89.16-10.34.16-11.6-.02-7.42-.03-11.13.02-11.72.08-.88.23-2.36-.52-3.92-1.09-2.28-3.39-3.34-4.35-3.7-1.81-.68-3.77-.84-5.71-.89-16.73-.44-51.64.16-53.6-.07h0Z"/>
  </g>
  <g id="Layer_2">
    <path class="st0" d="M92.86,21.27c-.06-3.21-.12-6.42-.18-9.62"/>
    <path class="st0" d="M106.65,21.27c-.14-3.33-.28-6.66-.42-9.98"/>
    <path class="st0" d="M120.68,21.27c.12-1.52.19-3.17.17-4.95-.02-2.03-.15-3.91-.34-5.62"/>
    <path class="st0" d="M134.41,20.98c.14-3.37-.07-6.76-.62-10.08,1.71-.21,3.96-.66,6.43-1.7,1.64-.69,3.01-1.48,4.1-2.21.02-.65.14-1.73.77-2.8.93-1.58,2.41-2.2,3.63-2.71.98-.41,3.64-1.48,6.92-.7,1.12.27,4.24,1.01,5.04,3.3.41,1.18.09,2.35.09,2.35-.28,1.02-.91,1.63-1.16,1.87-.81.77-1.72,1.04-2.22,1.18-4.6,1.24-7.64,2.06-10.44.31-.64-.4-1.71-1.21-2.63-2.8"/>
    <path class="st0" d="M153.68,31.93c10.28-.47,17.59-.77,19.15-.68.26.02,1.19.1,2.15-.39.49-.25.89-.64,1.28-1.03,1.07-1.07,2.13-2.14,3.2-3.2.41-.41.83-.82,1.37-1.02.71-.26,1.48-.09,2.22.03,2.02.32,4.09.27,6.09-.17,1.58-.34,3.29-1.1,3.79-2.64.45-1.37-.29-2.91-1.44-3.77s-2.61-1.18-4.04-1.34c-2.01-.23-4.05-.19-6.05.1-1.79.26-4.35,1.14-4.73,2.82-.35,1.58,1.31,3.72,4.16,4.97"/>
  </g>
  <g id="Layer_4">
    <path class="st0" d="M153.53,38.92c7.19.02,14.37.04,21.56.06"/>
    <path class="st0" d="M153.86,45.99h20.67"/>
    <path class="st0" d="M154.14,53.69c2.41-.03,4.83-.09,7.29-.15,4.51-.13,8.94-.31,13.29-.54"/>
    <path class="st0" d="M153.6,61.01c3.45-.34,7.02-.62,10.69-.84,3.26-.2,6.45-.34,9.54-.43,1.1,1.2,2.22,2.41,3.36,3.62.97,1.03,1.93,2.04,2.89,3.03-1.71.51-2.97,1.65-3.13,2.96-.27,2.28,2.99,3.81,3.38,3.99,1.75.79,3.43.52,6.79-.02,3.02-.49,4.53-.76,5.11-1.87.68-1.3.19-2.98-.86-4.01-1.15-1.13-2.47-1.48-3.97-1.72-1.45-.23-4.06-.42-7.32.67"/>
    <path class="st0" d="M134.27,70.06c-.3,3.64-.34,7.3-.11,10.94,4.24,1.18,8.48,2.37,12.72,3.55-1.06.77-1.18,2.41-.52,3.54s1.87,1.83,3.11,2.26c2.82.98,6.01.85,8.74-.37,1.41-.63,2.85-1.85,2.73-3.39-.1-1.28-1.24-2.22-2.37-2.82-4.02-2.13-9.19-1.87-12.97.65"/>
    <path class="st0" d="M120.05,70.24v10.64"/>
    <path class="st0" d="M106.73,70.78v9.45"/>
  </g>
  <g id="Layer_5">
    <path class="st0" d="M92.56,70.93v10.05"/>
    <path class="st0" d="M79.15,70.78l-.03,8.86c-3.68,1.29-7.36,2.57-11.04,3.86-.44.15-.91.31-1.37.23-.63-.11-1.04-.48-1.15-.58-1.14-.98-6.05-2.45-9.59-.43-.57.32-2.57,1.46-2.62,3.19-.05,1.84,2.1,3.2,2.86,3.51,2.34.95,5.06,1.33,7.36.28,2.3-1.05,3.88-3.84,2.96-6.19"/>
    <path class="st0" d="M60.3,60.05c-5.72-.04-11.43-.08-17.15-.12-1.7-.01-3.52,0-4.93.95-2.4,1.62-4.69,5.65-5.96,5.72-.39.02-.8-.01-.8-.01-.61-.05-1.06-.18-1.19-.22-1-.28-2.69-.32-3.75-.23-1.43.12-2.33.19-3.15.79-1.78,1.3-2.6,4.69-1.11,6.02.85.76,2.05.96,3.19,1.05,2.12.16,4.27.02,6.36-.41,1.36-.28,2.81-.77,3.57-1.94.66-1.02.76-2.77-.29-3.96-1.05-1.19-2.63-1.1-2.83-1.09"/>
    <path class="st0" d="M59.98,52.64c-7.09.13-14.19.25-21.28.38"/>
    <path class="st0" d="M60.49,45.9c-7.2-.09-14.4-.18-21.6-.27"/>
    <path class="st0" d="M59.98,38.84h-20.89"/>
    <path class="st0" d="M60.41,31.81c-4.54-.47-9.64-.66-15.2-.34-1.99.12-3.9.29-5.73.51-1.05-.83-2.19-1.82-3.35-3-.99-1.01-1.84-2-2.56-2.92.1-.07.25-.18.43-.3.55-.37.9-.54,1.02-.66.36-.35,1.05-.97,1.27-2.03.18-.87-.05-1.58-.16-1.92,0,0-.3-.9-1.04-1.66-1.86-1.93-8.43-2.65-12.69-.27-1.13.63-1.71,1.26-1.93,2.03-.34,1.18.29,2.28.44,2.52.48.79,1.14,1.15,1.69,1.46,1,.55,1.9.68,2.74.79.31.04.6.07.86.08.52.03.96.03,1.26.02.19,0,.33-.02.38-.02.88-.06,2.2-.04,2.77-.04.67,0,1.65,0,2.94,0"/>
  </g>
  <g id="Layer_6">
    <path class="st0" d="M114.22,33.94c-1.44-.91-4.96-2.92-9.81-2.52-3.42.29-6.76,1.91-8.9,4.6-2.21,2.79-2.99,6.44-3.42,9.97-.44,3.59.89,7.4,3.45,9.95,1.12,1.12,2.47,2,3.85,2.79,2.33,1.32,4.89,2.42,7.57,2.51,3.22.11,6.53-.67,8.88-2.88s3.78-5.23,4.71-8.31c.39-1.31.81-2.76.73-4.72-.12-2.97-1.3-5.11-1.85-6.06-.32-.55-1.9-3.24-5.21-5.33h0Z"/>
  </g>
  <g id="Layer_21" data-name="Layer_2">
    <path class="st0" d="M127.2,44.92c-.96-.53-1.7-.86-1.86-.93-1.69-.76-4.99-2.21-10.47-4.36-.67-.24-1.65-.57-2.84-.92-1.57-.47-5.84-1.68-11.58-2.32-.77-.09-3.3-.35-6.64-.42-1.97-.04-3.69,0-5.07.07-1.56.22-2.82.57-3.69.86-2.07.68-2.62,1.21-2.86,1.48-.23.25-.97,1.1-1.02,2.31-.04,1.02.43,1.78.65,2.14,2.09,3.32,6.77,5.08,6.77,5.08,9.96,3.75,15,5.64,17.57,6.19,3.79.81,6.7,1.14,10.19,1.53,0,0,3.18.36,6.29.37,1.41,0,2.52-.08,2.84-.1.4-.03.9-.07,1.55-.16,1.18-.16,2.01-.29,2.96-.7.29-.12.8-.35,1.33-.74,1.19-.87,1.79-2.07,2.09-2.92-.26-1-.64-1.72-.9-2.15-1.21-2.02-3.08-3.07-5.32-4.3Z"/>
  </g>
  <g id="Layer_3">
    <path class="st0" d="M125,35.46c-9.12.29-14.67,1.36-14.67,1.36-7.59,2.09-15.48,3.21-22.31,7.11-1.19.68-2.3,1.38-3.42,2.16-1.12.78-2.18,1.74-2.73,2.99s-.5,2.84.41,3.86c.34.39.78.74,2.14,1.19,2.42.8,4.46.88,4.98.89,3.89.12,6.22-.16,6.22-.16,10.19-1.22,16.19-2.58,16.19-2.58s11.19-2.54,16.53-5.79c.42-.25,1.24-.8,2.15-1.52,1.29-1.03,2.1-1.69,2.74-2.82.42-.75.94-1.68.72-2.71-.07-.35-.38-1.41-2.66-2.57-2.94-1.49-5.81-1.43-6.29-1.41Z"/>
  </g>
  <line class="st0" x1="31.52" y1="66.59" x2="31.52" y2="66.59"/>
  <path class="st0" d="M11.14,175.36c-1.09,0-4.21.16-6.95,2.42-.44.36-4.59,3.82-3.51,7.04,1.09,3.24,5.1,4.04,8.4,4,1.32-.02,2.69.12,4.22-.61,2.51-1.2,4.73-4.09,4.4-7.29-.03-.26-.35-2.97-2.52-4.5-1.68-1.18-3.49-.96-4.05-1.05,0,0-.89-.62-1.51-1.92-1.68-3.54-.69-51.45-.61-55.28"/>
  <path class="st0" d="M19.5,153.59c3.98.11,7.96.1,11.94-.04"/>
  <path class="st0" d="M25.58,117.59c.17,12.16.33,24.31.5,36.47"/>
  <path class="st0" d="M19.85,153.47c.01-4.68.03-9.35.04-14.03"/>
  <path class="st0" d="M31.22,153.78l.04-14.37"/>
  <path class="st0" d="M14.59,97.29c2.9.39,5.54,2.36,6.09,6.12.13.87.09,1.8-.36,2.56-.38.65-1.01,1.11-1.66,1.48-2.71,1.57-6.06,1.99-9.06,1.13-1.35-.38-2.72-1.1-3.3-2.37-.27-.57-.35-1.22-.34-1.85.05-3.75,2.87-6.63,6.54-7.09.84-.1,1.56.04,2.29-.38,1.04-.6,2.03-2.01,2.89-2.86,1.99-1.97,3.97-3.95,5.94-5.94,5.61-.14,10.78.16,16.39.4"/>
  <path class="st0" d="M196.27,30.98c22.67.15,45.34.12,68-.09-.31-.91.01-1.86.62-2.7.76-1.04,1.61-1.61,2.37-1.99,1.55-.79,3.01-.87,5.87-1.02,1.65-.08,2.5-.12,3.7.07,1.24.19,2.36.36,3.55,1.12.37.23,2.57,1.64,2.81,3.93.08.81-.1,1.55-.15,1.77,0,0-.26,1.03-.9,1.94-1.47,2.05-6.07,2.23-7.17,2.27-3.32.12-5.86.22-8.09-1.57-1.56-1.25-2.27-2.86-2.61-3.82"/>
  <path class="st0" d="M211.05,39.98h30.01"/>
  <path class="st0" d="M211.17,35.69v15.19"/>
  <path class="st0" d="M211.34,46.2h29.9"/>
  <path class="st0" d="M314.48,59.1c.11-.89.48-2.89,1.96-4.44.31-.33.83-.89,1.7-1.23.73-.28,1.53-.31,2.31-.31,3.4-.01,5.09.33,6.47,1.1,1.9,1.07,3.94,3.17,3.78,5.05-.04.5-.24.99-.24.99-.48,1.23-1.5,1.85-2.02,2.17-1.48.9-5.8,2.47-10,.3-1.97-1.02-3.22-2.5-3.96-3.63h-75.83"/>
  <path class="st0" d="M285.73,77.22c-21.44-.48-42.88-.95-64.31-1.43-1.9-1.91-3.84-3.95-5.79-6.12-1.57-1.74-3.05-3.46-4.46-5.15"/>
  <path class="st0" d="M285.28,71.7v10.75"/>
  <path class="st0" d="M9.16,128.55"/>
</svg>