<?xml version="1.0" encoding="UTF-8"?>
<svg id="Layer_1" xmlns="http://www.w3.org/2000/svg" version="1.1" viewBox="0 0 1920 3080">
  <!-- Generator: Adobe Illustrator 29.8.1, SVG Export Plug-In . SVG Version: 2.1.1 Build 2)  -->
  <defs>
    <style>
      .st0 {
        fill: none;
        stroke: #c40505;
        stroke-miterlimit: 10;
      }
    </style>
  </defs>
  <path class="st0" d="M387.3,471.47c.51-.3,2.39-1.46,3.12-3.81.55-1.77.16-3.3,0-3.89-.29-1.09-.61-2.62-1.41-2.77-1.06-.2-2.53,2.03-3.09,3.98-.54,1.89-.24,3.56,0,4.85.4,2.2.93,2.35,1.21,3.98.11.65.33,2.34-1.12,6.58-.39,1.12-1.04,2.86-2.94,6.58-3.08,6.01-3.56,5.76-4.67,8.83-.06.18-.99,2.71-2.13,5.57-.13.31-.49,1.23-1.08,2.39-.93,1.85-1.39,2.77-1.64,2.77-1.7-.03-4.58-19.39.78-24.06.28-.25,1.71-1.43,2.51-3.46.53-1.36,1.05-3.77,0-4.5-.71-.49-1.97-.1-2.77.52-1.86,1.44-1.7,4.5-1.64,5.71.54,12.7-2.4,22.25.87,23.36,1.67.57,3.91-1.41,5.37-2.68,2.12-1.87,2.05-3.02,4.76-6.14,2.27-2.62,2.5-2,3.89-3.89,2.57-3.48,1.32-4.9,3.72-7.62,1.71-1.94,3.04-2.02,3.89-4.15.24-.59,1.01-2.52,0-3.63-.62-.68-1.8-.93-2.6-.52-.29.15-.86.57-1.38,3.81-.22,1.35-.33,2.02-.35,3.03-.09,4.8-13.51,18.31-20.42,31.07-1.86,3.42-3.45,7.17-5.62,12.29-3.86,9.08-5.17,13.68-6.14,13.5-1.07-.2.32-5.84-.95-16.44-.04-.35-.21-1.4-.37-2.86-.41-3.78-.41-6.57-.41-7.09.01-3.02.39-2.87.57-7.1.27-6.24-.38-7.04.64-9.35,1-2.26,2.22-2.81,2.42-5.11.16-1.73-.31-3.94-1.3-4.15-.91-.2-2.04,1.34-2.51,2.42-.82,1.9-.22,3.87,0,4.59.21.69.45,1.16.52,1.3,1.81,3.69-2.01,11.08-1.25,19.7.23,2.6.8,4.4.48,4.5-.45.14-2.23-3.34-3.05-7.13-.2-.91-.54-2.53-.55-4.71-.02-3.7.96-4.97,0-6.37-.89-1.29-2.93-1.98-4.02-1.28-1.41.92-.66,3.9-.55,4.32.72,2.71,2.81,4.34,3.25,4.71,6.31,5.16,8.04,22.59,6.35,35.11-.44,3.22.34,6.91-1.69,8.14-1.3.79-3.62.11-8.2-1.27-5.12-1.55-5.48-2.17-6.95-1.86-2.32.49-2.25,2.22-7.02,6.61-2.51,2.31-3.8,3.47-5.78,4.13-3.13,1.04-4.35-.2-5.99,1.03-2.02,1.52-.76,3.85-2.68,7.85-1.68,3.5-3.3,3.07-4.54,5.99-2.13,5.01.7,10.81,1.24,10.74.51-.07-.73-5.44,1.45-6.61.31-.17,1.32.08,3.29.49,1.95.41,2.2.53,2.49.33.95-.65-.47-2.8.41-5.16.04-.11.99-2.54,3.1-3.3,3.42-1.23,6.85,3.05,8.47,1.86,1.33-.98-.69-4.08.83-5.78,1.65-1.84,6.21-.61,8.88.83,4.24,2.29,5.95,6.32,6.4,7.43.4.99.76,2.94,1.45,6.81,1.08,6.04,1.16,7.48,1.92,7.64,1.32.27,3.45-3.6,4.88-6.21.35-.63.58-1.1.85-1.64,1.74-3.51,2.82-6.48,3.3-7.85,1.43-4.07,2.02-6.89,2.27-9.09.07-.6.14-1.43,0-2.48-.15-1.15-.57-2.63-1.75-4.38-2.14-3.19-5.73-5.71-6.1-5.33-.55.57,4.36,9.23,10.74,9.71,3.04.23,4.58-1.54,7.85-.41,2.89,1,4.52,3.37,4.75,3.72.49.73.52,2.09,1.5,4.37.15.35.29.66.36.79,1.43,3,4.65,3.54,5.58,5.78,1.53,3.69-1.38,8.29-3.1,10.12-.51.54-1.53,1.61-3.22,2.3-.09.04-1.28.51-2.56.61-3.25.24-5.18-2.13-9.09-3.94-2.02-.94-4.21-1.96-6.61-1.86-7.69.31-12.58,11.84-12.8,12.39-1.57,3.82-1.79,7.09-2.06,11.15-.45,6.66.86,7.79,0,14.66-.22,1.78-.56,3.7,0,3.92.75.3,2.14-2.81,5.22-5.99,1.6-1.65,3.52-2.89,7.38-5.37,5.69-3.66,8.54-5.49,11.36-5.78,3.5-.36,4.77.89,6.81-.21,3.03-1.62,3.51-6.16,3.72-7.85.61-5.02-1.52-6.25-.28-9.59,1.06-2.83,2.81-2.51,4.79-6.19.38-.7,2.01-3.73,1.9-7.1-.22-6.55-6.88-10.25-6.19-11.14.68-.88,7.84,1.72,11.56,7.76,1.5,2.43.86,2.86,2.56,5.61,3.07,4.98,5.54,4.21,7.92,8.42,2.61,4.59,1.85,9.33,1.65,10.57-.31,1.93-.92,3.42-1.16,3.38-.34-.05.6-3.22-.81-4.4-1.42-1.19-3.65.97-5.71-.11-2.05-1.08-1.25-3.96-3.07-5.6-2.11-1.9-6.43-1.93-9.11.33-2.79,2.36-2.72,6.32-2.47,6.4.32.1,1.35-6.49,4.32-6.95,2.55-.4,3.46,4.17,8.54,5.71,3.28.99,5.03-.26,6.33,1.18,1.89,2.11-.08,6.71-.51,7.72-1.4,3.26-3.28,4.75-7.77,9-6.16,5.85-4.73,5.06-8.21,8.11-5.32,4.67-8.18,7.17-12.86,9.1-5.09,2.1-9.51,2.35-12.07,2.47-5.9.29-10.5-.79-12.66-1.38-11.49-3.18-18.53-10.9-21.26-14.34-2.25-2.83-.37-1.24-7.91-14.14-3.34-5.72-5.25-8.67-5.93-13.45-.24-1.65-1.22-8.59,1.78-10.29,2.89-1.63,8.03,2.43,11.97,5.54,2.87,2.27,4.82,4.45,8.7,8.8,3.64,4.08,5.46,6.12,6.03,7.52,2.13,5.21-.52,8.08.49,14.83.43,2.86.88,1.58,3.96,10.09,1.79,4.94,2.06,6.37,3.46,6.87,2.05.73,4.73-1.18,9.48-4.57.79-.56,1.58-1.16,3.08-2.36,5-4,7.38-6.45,7.51-6.32.14.14-2.21,3.2-5.73,6.25-1.71,1.48-2.25,1.72-8.1,5.65-6.09,4.1-6.92,4.8-9.07,5.28-1.59.36-4.52,1.01-7.36-.59-2.72-1.54-3.66-4.19-3.87-4.83-.24-.74-1.24-3.83.07-4.98,1.76-1.54,6.43,1.43,8.4,2.68,2.48,1.57,5.07,3.21,4.83,4.91-.28,2.03-4.23,1.53-6.25,4.54-1.28,1.91-.76,3.69,0,10.15.73,6.2,1.1,9.3.95,11.53-.46,7.15-3.73,12.7-3.49,12.8.24.1,2.5-5.87,3.7-5.61,1.21.27-.67,6.43,2.33,12.48.57,1.14,2.52,4.73,2.52,4.73-2.07-5.5-5.94-13.25-13.25-20.19-8.35-7.93-17.41-11.22-20.5-12.3-4.49-1.58-11.35-3.35-16.72-4.73-7.1-1.83-8.09-1.86-10.72-3.15-4.82-2.37-6.19-4.59-11.99-7.25-4.49-2.06-6.74-3.09-7.89-2.21-4.55,3.49,13.32,32.66,14.19,34.07,13.31,21.56,20.86,24.33,24.29,25.23,2.35.62,8.2,2.15,14.51,0,3.43-1.17,4.32-2.52,14.19-8.2,5.86-3.37,7.89-4.25,9.93-3.48,2.94,1.11,4.02,4.93,4.62,7.1,1.51,5.38.33,9.97-.99,14.87-1.4,5.21-3.16,8.81-6.11,14.87-1.76,3.61-3.33,6.83-5.91,10.9-5.12,8.08-6.2,6.88-8.46,11.73-3.25,6.97-2.42,12.51-6.11,13.87-.34.13-1.71.64-2.81,0-1.92-1.11-1.73-5.01.33-16.35,1.85-10.17,2.78-15.26,3.96-17.51,1.87-3.54,5.15-6.99,11.73-13.87,4.63-4.85,5.75-5.42,7.76-8.59,2.57-4.05,3.32-7.19,5.12-7.27,1.98-.08,3.66,3.61,4.29,5.12,10.19,24.29,15.16,63.66,15.16,63.66,2.95,23.34,13.34,40.28,34.14,74.16,12.72,20.72,19.08,31.08,31.78,42.38,24.72,21.98,52.07,29.09,62.9,31.78,11.13,2.76,25.26-1.54,35.99,4.71,1.56.91,5.57,3.46,9.37,2.15,2.66-.92,3.14-3.02,7.22-9.03,3.41-5.01,5.57-8.2,9.03-11.74.1-.1.81-.77,1.74-1.71,5.25-5.36,5.38-7.12,5.19-7.92-.04-.18-.2-.69-.29-1.44-.13-1-.2-1.56-.01-1.87.6-1,3.72.89,6.62.6,5.02-.51,8.21-6.81,9.03-8.43,1.36-2.69,1.71-5.5,2.41-11.14.66-5.29.98-7.93.05-8.43-2.05-1.09-8.33,5.9-12.39,12.34-5.21,8.26-8.24,17.93-6.87,18.64,1.7.89,10.57-12,10.32-12.2-.36-.29-21.99,23.67-18.41,28.1.93,1.15,4.91.77,12.88,0,3.6-.35,4.59-.63,7.02-.48,4.11.25,4.9,1.29,9.23,1.92,1.98.29,9.19,1.34,10.29-1.06.7-1.53-1.23-4.12-3.08-5.38-1.32-.91-2.58-1.09-5.1-1.44-2.76-.39-4.72-.67-7.02.1-2.6.87-4.88,2.82-4.61,3.46.04.11.18.22,1.17.32,1.29.13,1.94.19,3.25-.03,2.6-.43,5.09-.06,5.1,0,.04.71-21.5,8.86-27.69,1.63-.73-.85-1.44-3.09-2.86-7.57-1.66-5.22-2.49-7.83-2.64-10.58-.35-6.15,2.2-6.78,2.09-13.92-.07-4.39-1.09-7.44-1.81-9.18-.21-.51-3.23-7.66-5.71-7.24-1.67.28-2.28,3.9-3.2,9.32-1.24,7.32-1.86,10.99-.28,13.92,1.21,2.25,2.48,2.48,6.54,8.21.92,1.3,1.38,1.95,1.81,2.69.96,1.64,3.16,5.54,3.2,10.74,0,1.33.02,3.55-.9,5.88-2.89,7.33-11.84,7.74-11.83,10.93.02,3.48,10.69,6.17,16.62,7.67,9.63,2.43,17.19,2.98,18.46,3.07,10.42.72,17.97-.13,32.66-1.84,9.26-1.08,15.08-1.78,23.14-3.59,7.73-1.74,13.11-3.51,20.01-5.78,14.01-4.61,21.15-7.01,28.02-11.78,3.94-2.74,7.89-5.49,11.78-10.45,5.6-7.14,5.86-12.21,12.98-18.68,4.51-4.11,7.23-4.64,8.93-4.69,5.43-.19,9.12,4.14,9.57,4.69,3.67,4.45,2.91,9.67,2.76,10.58-.15.9-.73,3.88-3.13,6.63-2.89,3.31-6.59,4.16-10.49,5.06-2.05.47-5.55,1.05-9.85.55-3.46-.4-5.56-.64-7.55-2.12-2.98-2.21-3.63-5.64-4.6-10.77-.79-4.14-1.67-9.16.64-14.27.55-1.2,2.3-5.08,4.79-5.06.88,0,1.85.5,2.3,1.29.74,1.3-.18,2.94-1.1,4.97,0,0-2.02,4.41-3.22,9.39-1.01,4.18-.84,7.97-.55,8.01.22.03.63-2.15,2.67-11.51,1.51-6.95,2.37-10.71,5.25-14.54,1.36-1.82,2.36-3.11,3.96-3.31,2.46-.32,4.13,2.2,9.57,6.72,4.29,3.56,4.11,2.72,5.52,4.23,3.73,4,3.9,10.34,4.23,23.01.09,3.43.06,6.91-2.12,10.12-.52.76-1.62,2.36-3.68,3.41-3.66,1.86-7.51.57-9.2,0-2.26-.76-3.67-1.77-7.64-4.97-2.49-2.01-5.66-4.61-9.3-7.73"/>
  <path class="st0" d="M1547.79,907.6c-.49.37-2.28,1.8-2.83,4.5-.42,2.03.08,3.73.29,4.38.37,1.21.8,2.91,1.61,3.03,1.07.16,2.37-2.45,2.79-4.69.4-2.16-.02-4.03-.36-5.47-.56-2.45-1.1-2.59-1.5-4.41-.16-.73-.5-2.62.63-7.49.31-1.29.83-3.29,2.45-7.61,2.63-6.97,3.13-6.72,4.01-10.25.05-.21.79-3.12,1.71-6.42.11-.36.4-1.42.9-2.76.79-2.15,1.18-3.21,1.43-3.23,1.7-.08,6,21.55.99,27.16-.26.3-1.6,1.72-2.25,4.06-.43,1.57-.77,4.32.33,5.07.74.51,1.97-.02,2.73-.77,1.75-1.74,1.36-5.18,1.22-6.54-1.47-14.28.76-25.23-2.59-26.27-1.71-.53-3.8,1.84-5.16,3.37-1.98,2.25-1.82,3.54-4.3,7.23-2.07,3.1-2.35,2.42-3.6,4.64-2.31,4.09-.96,5.61-3.15,8.83-1.56,2.3-2.88,2.47-3.58,4.93-.2.68-.82,2.91.27,4.09.67.73,1.86.93,2.63.42.28-.19.82-.7,1.1-4.38.12-1.54.18-2.3.13-3.44-.26-5.41,12.13-21.51,18.09-36.34,1.6-3.98,2.91-8.3,4.7-14.22,3.18-10.48,4.15-15.75,5.13-15.61,1.08.16.11,6.6,2.16,18.46.07.39.31,1.56.58,3.2.69,4.23.89,7.38.93,7.96.21,3.4-.18,3.26-.05,8.04.19,7.05.9,7.91.05,10.58-.83,2.61-2.01,3.31-2.04,5.92-.03,1.96.6,4.42,1.6,4.59.92.17,1.94-1.64,2.33-2.89.68-2.19-.07-4.38-.34-5.17-.26-.76-.53-1.28-.61-1.43-2.08-4.04,1.19-12.62-.2-22.28-.42-2.91-1.12-4.91-.81-5.04.44-.19,2.47,3.62,3.57,7.84.27,1.01.73,2.82.9,5.27.29,4.17-.59,5.66.47,7.18.98,1.4,3.07,2.04,4.11,1.18,1.34-1.13.37-4.44.23-4.9-.92-3.01-3.12-4.71-3.59-5.1-6.68-5.4-9.69-24.93-8.92-39.15.2-3.66-.85-7.76,1.09-9.28,1.24-.98,3.6-.36,8.28.9,5.22,1.41,5.63,2.09,7.07,1.64,2.28-.7,2.08-2.65,6.52-7.91,2.33-2.77,3.54-4.16,5.46-5.03,3.05-1.38,4.36-.06,5.9-1.55,1.9-1.84.47-4.39,2.1-9.02,1.42-4.05,3.07-3.67,4.09-7.05,1.76-5.78-1.5-12.14-2.03-12.02-.5.11,1.13,6.08-.96,7.54-.3.21-1.32,0-3.32-.34-1.98-.33-2.23-.45-2.51-.21-.9.79.68,3.12-.03,5.84-.03.13-.8,2.93-2.85,3.92-3.32,1.61-7.06-2.99-8.59-1.54-1.25,1.19.99,4.55-.4,6.57-1.51,2.18-6.15,1.09-8.92-.36-4.4-2.3-6.4-6.73-6.93-7.95-.47-1.09-.98-3.26-1.95-7.58-1.52-6.74-1.71-8.35-2.48-8.48-1.34-.22-3.18,4.28-4.41,7.32-.3.73-.5,1.28-.73,1.9-1.48,4.07-2.34,7.49-2.71,9.06-1.13,4.68-1.51,7.9-1.6,10.39-.03.68-.03,1.62.18,2.79.23,1.29.76,2.93,2.07,4.82,2.37,3.45,6.14,6.06,6.48,5.61.51-.68-5.03-10.12-11.43-10.24-3.05-.06-4.46,2.03-7.8.97-2.96-.94-4.76-3.5-5.01-3.88-.54-.79-.67-2.32-1.82-4.83-.18-.38-.34-.72-.42-.87-1.65-3.29-4.9-3.69-5.99-6.15-1.8-4.06.77-9.43,2.35-11.61.47-.64,1.41-1.91,3.04-2.8.09-.05,1.24-.66,2.51-.85,3.23-.48,5.33,2.06,9.36,3.85,2.08.93,4.35,1.93,6.73,1.66,7.65-.85,11.68-14.16,11.86-14.8,1.29-4.41,1.26-8.11,1.23-12.7-.04-7.53-1.43-8.72-1.08-16.52.09-2.02.29-4.21-.29-4.42-.77-.29-1.93,3.31-4.77,7.09-1.47,1.96-3.3,3.49-6.97,6.53-5.41,4.5-8.12,6.74-10.91,7.25-3.47.63-4.83-.69-6.78.68-2.9,2.02-3.05,7.17-3.13,9.09-.24,5.7,1.98,6.94.99,10.79-.85,3.26-2.62,3.01-4.32,7.29-.33.81-1.73,4.33-1.37,8.12.7,7.37,7.62,11.1,7,12.15-.61,1.04-7.95-1.43-12.11-7.99-1.68-2.64-1.07-3.17-2.97-6.15-3.43-5.41-5.84-4.38-8.52-8.97-2.94-5-2.53-10.39-2.43-11.8.17-2.19.67-3.91.91-3.88.34.03-.36,3.67,1.13,4.91,1.5,1.25,3.57-1.33,5.71-.25,2.13,1.08,1.54,4.38,3.48,6.11,2.25,2,6.56,1.76,9.07-.97,2.61-2.84,2.25-7.3,1.99-7.37-.33-.09-.87,7.4-3.8,8.11-2.52.62-3.76-4.47-8.94-5.88-3.35-.9-5,.62-6.4-.92-2.04-2.25-.41-7.57-.06-8.73,1.16-3.76,2.92-5.57,7.09-10.65,5.72-6.99,4.35-6.01,7.59-9.67,4.96-5.61,7.63-8.61,12.16-11.09,4.92-2.7,9.32-3.27,11.86-3.57,5.87-.71,10.54.2,12.73.73,11.7,2.83,19.29,11.07,22.27,14.77,2.45,3.04.46,1.37,8.94,15.42,3.75,6.23,5.88,9.43,6.91,14.77.36,1.84,1.85,9.6-1.02,11.71-2.76,2.03-8.19-2.21-12.35-5.46-3.03-2.37-5.14-4.7-9.33-9.35-3.93-4.36-5.9-6.54-6.57-8.08-2.51-5.73-.08-9.14-1.58-16.68-.64-3.19-.99-1.72-4.7-11.11-2.15-5.45-2.53-7.04-3.96-7.52-2.1-.69-4.63,1.64-9.12,5.77-.75.68-1.49,1.41-2.9,2.86-4.69,4.83-6.89,7.75-7.03,7.61-.15-.15,1.97-3.75,5.26-7.42,1.6-1.78,2.12-2.08,7.67-6.9,5.77-5.02,6.55-5.86,8.66-6.54,1.56-.51,4.44-1.43,7.39.18,2.83,1.56,3.96,4.48,4.22,5.19.29.82,1.52,4.23.3,5.62-1.64,1.85-6.52-1.19-8.58-2.47-2.59-1.61-5.3-3.29-5.18-5.22.13-2.31,4.11-2,5.9-5.52,1.14-2.24.49-4.21-.75-11.44-1.19-6.94-1.78-10.41-1.8-12.93-.07-8.09,2.79-14.55,2.54-14.65-.25-.1-2.06,6.78-3.28,6.56-1.23-.23.19-7.29-3.24-13.91-.65-1.25-2.86-5.17-2.86-5.17,2.47,6.06,6.9,14.54,14.71,21.89,8.92,8.39,18.2,11.51,21.36,12.52,4.6,1.49,11.57,3.03,17.03,4.24,7.22,1.6,8.21,1.57,10.93,2.85,4.98,2.36,6.52,4.77,12.5,7.39,4.63,2.03,6.95,3.04,8.04,1.98,4.28-4.23-15.7-35.93-16.67-37.46-14.87-23.43-22.61-26.05-26.1-26.84-2.39-.55-8.34-1.89-14.48.95-3.34,1.54-4.13,3.12-13.56,10.17-5.6,4.18-7.56,5.3-9.65,4.57-3.02-1.06-4.37-5.29-5.13-7.7-1.9-5.96-1.06-11.21-.11-16.82,1.01-5.96,2.5-10.13,5-17.15,1.49-4.18,2.82-7.91,5.09-12.67,4.51-9.44,5.68-8.16,7.58-13.77,2.73-8.07,1.49-14.25,5.07-16.03.33-.17,1.66-.83,2.8-.18,2,1.13,2.1,5.53.88,18.44-1.1,11.58-1.65,17.38-2.66,19.99-1.61,4.11-4.62,8.21-10.68,16.39-4.26,5.77-5.34,6.48-7.11,10.19-2.27,4.73-2.78,8.32-4.57,8.53-1.97.22-3.92-3.83-4.66-5.49-11.96-26.71-19.82-70.74-19.82-70.74-4.66-26.11-16.28-44.52-39.53-81.34-14.22-22.52-21.33-33.78-34.84-45.68-26.29-23.15-54.1-29.38-65.11-31.71-11.31-2.38-25.09,3.38-36.26-2.96-1.62-.92-5.81-3.54-9.51-1.81-2.59,1.21-2.91,3.61-6.54,10.65-3.03,5.87-4.95,9.6-8.15,13.82-.09.12-.75.92-1.61,2.04-4.84,6.38-4.84,8.37-4.6,9.26.05.2.25.76.4,1.6.2,1.12.31,1.74.15,2.11-.52,1.17-3.78-.76-6.65-.24-4.97.9-7.69,8.21-8.39,10.09-1.16,3.12-1.3,6.31-1.58,12.71-.27,6-.39,9,.57,9.5,2.13,1.09,7.88-7.19,11.45-14.71,4.59-9.65,6.9-20.74,5.48-21.45-1.76-.89-9.66,14.21-9.4,14.42.38.3,20.2-28.11,16.3-32.86-1.01-1.24-4.96-.55-12.85.84-3.57.63-4.53,1.01-6.97,1-4.12-.01-4.98-1.13-9.35-1.56-2-.2-9.27-.91-10.19,1.87-.59,1.77,1.53,4.56,3.47,5.86,1.38.94,2.65,1.06,5.2,1.29,2.78.26,4.76.45,7-.57,2.53-1.15,4.66-3.5,4.35-4.2-.05-.12-.2-.24-1.19-.28-1.3-.06-1.95-.09-3.24.25-2.56.65-5.07.4-5.09.33-.09-.8,20.8-11.39,27.51-3.64.79.91,1.66,3.39,3.41,8.34,2.04,5.77,3.06,8.66,3.41,11.75.8,6.91-1.7,7.78-1.06,15.82.39,4.94,1.64,8.31,2.48,10.23.25.56,3.79,8.42,6.23,7.79,1.65-.42,1.99-4.54,2.51-10.71.7-8.33,1.05-12.51-.75-15.7-1.37-2.46-2.66-2.63-7.13-8.82-1.01-1.4-1.52-2.11-2-2.91-1.08-1.79-3.56-6.04-3.98-11.89-.1-1.5-.28-4,.46-6.68,2.34-8.45,11.24-9.49,11-13.09-.28-3.92-11.12-6.25-17.15-7.56-9.79-2.11-17.37-2.24-18.65-2.25-10.45-.13-17.92,1.32-32.45,4.2-9.16,1.82-14.92,2.99-22.83,5.56-7.59,2.47-12.82,4.81-19.54,7.82-13.64,6.11-20.59,9.28-27.09,15.1-3.73,3.34-7.47,6.7-10.98,12.54-5.06,8.41-4.95,14.14-11.58,21.9-4.2,4.93-6.87,5.7-8.57,5.87-5.4.57-9.41-4.07-9.9-4.66-3.99-4.77-3.62-10.71-3.53-11.74.08-1.02.44-4.42,2.63-7.68,2.64-3.92,6.27-5.12,10.09-6.39,2.01-.66,5.46-1.55,9.79-1.26,3.48.22,5.6.36,7.69,1.9,3.14,2.3,4.04,6.12,5.38,11.84,1.09,4.61,2.34,10.21.41,16.12-.46,1.39-1.92,5.87-4.41,6.01-.88.06-1.88-.44-2.39-1.3-.83-1.42-.04-3.32.73-5.67,0,0,1.69-5.1,2.52-10.79.7-4.78.25-9.04-.04-9.06-.22-.02-.47,2.46-1.82,13.14-.99,7.93-1.58,12.22-4.17,16.73-1.22,2.14-2.13,3.66-3.71,3.99-2.43.52-4.28-2.21-10.04-6.95-4.54-3.73-4.3-2.8-5.82-4.41-4.02-4.26-4.65-11.4-5.92-25.65-.34-3.86-.57-7.78,1.37-11.54.46-.89,1.44-2.76,3.42-4.08,3.52-2.33,7.45-1.13,9.18-.6,2.31.71,3.79,1.75,7.99,5.1,2.63,2.1,5.99,4.83,9.85,8.1"/>
</svg>