<?xml version="1.0" encoding="UTF-8"?>
<svg id="Layer_1" xmlns="http://www.w3.org/2000/svg" version="1.1" viewBox="0 0 315.55 76.31">
  <!-- Generator: Adobe Illustrator 30.0.0, SVG Export Plug-In . SVG Version: 2.1.1 Build 123)  -->
  <defs>
    <style>
      .st0 {
        fill: none;
        stroke: #000;
        stroke-miterlimit: 10;
      }
    </style>
  </defs>
  <path class="st0" d="M12.09,31.95c-4.21,3.34-11.67-.34-11.59-5.71.04-2.33,1.19-4.49,2.51-6.41C12.29,6.3,31.59.73,46.65,7.24c-4-.66-7.74,2.69-9.14,6.5s-1.12,7.99-1.25,12.04c-.36,11.89-5.36,24.71-16.09,29.85,3.42.55,6.66-1.63,9.27-3.91,15.4-13.47,23.57-34.07,39.95-46.33,2.8-2.1,6.02-3.98,9.51-3.96s7.18,2.62,7.23,6.11"/>
  <path class="st0" d="M63.32,33.79c-.67.26-1.58.66-2.59,1.28-3.12,1.93-4.73,4.45-5.19,5.21-1.09,1.81-2.25,4.2-2.12,7.39.1,2.59,1.52,5.26,3.93,6.21,3.38,1.34,7.06-1.02,9.69-3.53,1.54-1.47,6.16-5.11,5.66-10.08-.06-.67-.35-3.16-2.44-4.97-2.81-2.43-6.51-1.6-6.94-1.5.4,1.46,1.65,5.22,5.29,7.82,4.05,2.89,8.49,2.5,10.59,2.32,3.32-.29,5.92-1.4,8.17-2.59,9.21-4.86,10.12-8.77,21.42-20.07,0,0,3.3-2.92,7.71-8.88,1.9-2.56,3.2-4.66,2.93-7.22-.19-1.86-1.13-3.27-1.83-4.11-2.08-1.14-4.75-.59-6.7.75-2.65,1.84-4.09,4.27-4.58,5.36-7.88,17.51-23.08,42.59-19.1,45.04.1.06.19.1.26.12,4.72.9,9.54-1.84,12.48-5.64,2.94-3.8,4.37-8.52,5.74-13.13-.95,4.47-1.9,8.95-2.85,13.43-.75,3.56-.82,8.44,2.65,9.57,3.03.99,5.79-1.99,7.49-4.69,3.7-5.88,6.84-12.11,9.36-18.58-1.36,2.47-2.41,5.22-3.78,7.69-1.21,2.19-2.45,4.46-2.65,6.96s.94,5.28,3.27,6.2c2.15.85,4.62-.11,6.46-1.51,3.17-2.4,5.23-5.96,6.83-9.59,1.48-3.34,3.22-8.3,4.3-14.66-.45,3-1.34,7.21-3.31,11.94-2.24,5.4-5.16,9.71-5.13,9.73.02.02,2.09-3.47,3.4-5.65,4.79-7.99,6.09-9.67,7.76-11.31,1.01-1,3.7-3.62,7.45-4.12.85-.11,1.75-.09,2.53.26,1.94.87,2.5,3.49,1.88,5.52s-2.07,3.68-3.26,5.44c-2.38,3.54-3.77,7.75-3.97,12.01-.04.73,0,1.58.59,2.03.65.52,1.6.25,2.36-.08,3.27-1.4,5.81-3.35,6.66-4.11,1.44-1.29,2.41-2.16,3.84-3.84,3.62-4.25,5.64-8.34,6.47-10.04,1.63-3.37,8.27-17.4,7.2-17.95-.87-.45-6.37,8.2-10,17.04,0,0-5.12,12.46-1.72,18.2.24.4.56.66.56.66.58.46,1.38.61,3.63.35.84-.1,1.91-.26,3.16-.53.42-.1,1.04-.27,1.78-.53,1.8-.64,3.07-1.41,3.76-1.88,3.86-2.64,7.65-5.4,11.36-8.26,2.49-1.92,4.97-3.93,6.84-6.46.66-.9,1.26-1.92,1.31-3.04.11-2.68-3.14-4.48-5.76-3.91-2.62.57-4.59,2.69-6.27,4.77-2.61,3.22-5.04,6.88-5.32,11.01-.28,4.14,2.38,8.72,6.5,9.19,1.71.2,3.42-.31,5.05-.88,9.76-3.4,18.75-9.01,26.1-16.28,1.13-1.12,2.29-2.42,2.39-4.01.12-1.78-1.19-3.41-2.8-4.17-3.32-1.57-7.49.11-9.74,3.01-.84,1.08-1.7,4.14-3.2,10.37-1.09,4.55-1.75,7.88.06,9.82.12.12.22.22.29.28,1.05.89,3,2.25,5.51,2.27,1.62,0,4.12-.3,8.11-4.93,5.6-6.5,10.23-14.41,10.42-22.99.01-.47,0-.98-.31-1.34s-1-.39-1.17.05c-1.01,1.02-.6,2.86.48,3.81,1.07.95,2.57,1.22,3.99,1.4,3.43.44,6.91.54,10.36.3.22-.41-.37-.86-.81-.71-.44.15-.68.61-.87,1.03-1.07,2.33-2.15,4.66-3.23,6.99-1.84,3.99-3.72,8.09-4.02,12.48-.05.64-.04,1.34.34,1.85.53.72,1.57.81,2.46.74,4.63-.35,9.54-4.72,9.54-4.72,3.7-3.41,5.63-6.92,7.06-9.54,2.02-3.71,3.21-7.03,3.9-9.36v-.04h0s-.98.78-1.8,1.87c-.98,1.3-6.84,10.27-8.86,19.67-.15.74-.39,2.1.33,2.97.79.96,2.29.87,3.48.49,4.86-1.56,8.02-6.21,10.2-10.82,2.49-5.25,4.19-10.84,5.89-16.4-1.85,8-4.47,15.82-7.82,23.31,3.22-7.85,8.8-14.71,15.84-19.45,2.09-1.41,5.07-2.58,6.94-.89.51,3.23-1.03,6.16-2.52,9.07-1.43,2.8-2.87,5.6-4.31,8.4-.55,1.08-1.11,2.19-1.15,3.4-.04,1.2.61,2.52,1.77,2.85.75.22,1.56-.02,2.28-.31,4.45-1.81,7.54-5.88,10.08-9.95s4.85-8.44,8.55-11.5c2.77-2.3,7.74-4.45,16.69-3.44"/>
  <path class="st0" d="M281.32,44.47c-.31.93-1.47,4.77.55,7.91.38.59,1.56,2.43,3.34,2.52,1.3.06,2.3-.89,2.85-1.36,2.9-2.46,5.03-5.67,7.17-8.82,1.56-2.3,5.03-6.99,12.23-16.2.94-1.21,1.72-2.19,2.23-2.83-.49.8-1.15,1.93-1.9,3.3-2.61,4.76-4.27,8.63-5.04,10.88-1.84,5.38-3.68,10.75-5.52,16.13-1.97,5.75-4.16,11.81-8.92,15.58-2.39,1.89-5.28,3.06-8.24,3.79-1.43.36-2.95.61-4.38.26s-2.77-1.47-2.97-2.93c-.15-1.07.31-2.14.87-3.07,2.25-3.77,6.07-6.34,10.05-8.18,1.04-.48,2.1-.92,3.17-1.34,5.01-1.97,8.64-3.41,9.05-3.56,3.11-1.17,8.66-5.11,19.33-17.01"/>
  <path class="st0" d="M158.03,30.12c6.44-.39,12.88-.78,19.32-1.17"/>
  <path class="st0" d="M254.53,20.41c-.18-.07-.46-.15-.79-.14-.12,0-1.21.04-1.56.79-.35.73.15,1.61.64,1.97.6.44,1.41.52,2.13.36.3-.07.6-.19.81-.41.45-.48.03-1.44-.39-1.95-.49-.6-1.18-.76-1.45-.8"/>
</svg>