<?xml version="1.0" encoding="UTF-8"?>
<svg id="Layer_1" xmlns="http://www.w3.org/2000/svg" version="1.1" viewBox="0 0 315.55 76.31">
  <!-- Generator: Adobe Illustrator 30.0.0, SVG Export Plug-In . SVG Version: 2.1.1 Build 123)  -->
  <defs>
    <style>
      .st0 {
        fill: none;
        stroke: #000;
        stroke-miterlimit: 10;
      }
    </style>
  </defs>
  <path class="st0" d="M12.09,31.95c-4.21,3.34-11.67-.34-11.59-5.71.04-2.33,1.19-4.49,2.51-6.41C12.29,6.3,31.59.73,46.65,7.24c-4-.66-7.74,2.69-9.14,6.5s-1.12,7.99-1.25,12.04c-.36,11.89-5.36,24.71-16.09,29.85,3.42.55,6.66-1.63,9.27-3.91,15.4-13.47,23.57-34.07,39.95-46.33,2.8-2.1,6.02-3.98,9.51-3.96s7.18,2.62,7.23,6.11"/>
  <path class="st0" d="M306.57,29.53c-8.95-1.01-13.92,1.14-16.69,3.44-3.7,3.06-6.01,7.43-8.55,11.5s-5.63,8.14-10.08,9.95c-.72.29-1.53.53-2.28.31-1.16-.33-1.81-1.65-1.77-2.85.04-1.21.6-2.32,1.15-3.4,1.44-2.8,2.88-5.6,4.31-8.4,1.49-2.91,3.03-5.84,2.52-9.07-1.87-1.69-4.85-.52-6.94.89-7.04,4.74-12.62,11.6-15.84,19.45,3.35-7.49,5.97-15.31,7.82-23.31-1.7,5.56-3.4,11.15-5.89,16.4-2.18,4.61-5.34,9.26-10.2,10.82-1.19.38-2.69.47-3.48-.49-.72-.87-.48-2.23-.33-2.97,2.02-9.4,7.88-18.37,8.86-19.67.82-1.09,1.8-1.87,1.8-1.87,0,0,0,0,.01,0v.04c-.69,2.33-1.88,5.65-3.9,9.36-1.43,2.62-3.36,6.13-7.06,9.54,0,0-4.91,4.37-9.54,4.72-.89.07-1.93-.02-2.46-.74-.38-.51-.39-1.21-.34-1.85.3-4.39,2.18-8.49,4.02-12.48,1.08-2.33,2.16-4.66,3.23-6.99.19-.42.43-.88.87-1.03.44-.15,1.03.3.81.71-3.45.24-6.93.14-10.36-.3-1.42-.18-2.92-.45-3.99-1.4-1.08-.95-1.49-2.79-.48-3.81.17-.44.87-.41,1.17-.05.3.36.32.87.31,1.34-.19,8.58-4.82,16.49-10.42,22.99-3.99,4.63-6.49,4.94-8.11,4.93-2.51-.02-4.46-1.38-5.51-2.27-.07-.06-.17-.16-.29-.28-1.81-1.94-1.15-5.27-.06-9.82,1.5-6.23,2.36-9.29,3.2-10.37,2.25-2.9,6.42-4.58,9.74-3.01,1.61.76,2.92,2.39,2.8,4.17-.1,1.59-1.26,2.89-2.39,4.01-7.35,7.27-16.34,12.88-26.1,16.28-1.63.57-3.34,1.08-5.05.88-4.12-.47-6.78-5.05-6.5-9.19.28-4.13,2.71-7.79,5.32-11.01,1.68-2.08,3.65-4.2,6.27-4.77,2.62-.57,5.87,1.23,5.76,3.91-.05,1.12-.65,2.14-1.31,3.04-1.87,2.53-4.35,4.54-6.84,6.46-3.71,2.86-7.5,5.62-11.36,8.26-.69.47-1.96,1.24-3.76,1.88-.74.26-1.36.43-1.78.53-1.25.27-2.32.43-3.16.53-2.25.26-3.05.11-3.63-.35,0,0-.32-.26-.56-.66-3.4-5.74,1.72-18.2,1.72-18.2,3.63-8.84,9.13-17.49,10-17.04,1.07.55-5.57,14.58-7.2,17.95-.83,1.7-2.85,5.79-6.47,10.04-1.43,1.68-2.4,2.55-3.84,3.84-.85.76-3.39,2.71-6.66,4.11-.76.33-1.71.6-2.36.08-.58-.45-.63-1.3-.59-2.03.2-4.26,1.59-8.47,3.97-12.01,1.19-1.76,2.64-3.41,3.26-5.44.62-2.03.06-4.65-1.88-5.52-.78-.35-1.68-.37-2.53-.26-3.75.5-6.44,3.12-7.45,4.12-1.67,1.64-2.97,3.32-7.76,11.31-1.31,2.18-3.38,5.67-3.4,5.65-.03-.02,2.89-4.33,5.13-9.73,1.97-4.73,2.86-8.94,3.31-11.94-1.08,6.36-2.82,11.32-4.3,14.66-1.6,3.63-3.66,7.19-6.83,9.59-1.84,1.4-4.31,2.36-6.46,1.51-2.33-.92-3.47-3.7-3.27-6.2s1.44-4.77,2.65-6.96c1.37-2.47,2.42-5.22,3.78-7.69-2.52,6.47-5.66,12.7-9.36,18.58-1.7,2.7-4.46,5.68-7.49,4.69-3.47-1.13-3.4-6.01-2.65-9.57.95-4.48,1.9-8.96,2.85-13.43-1.37,4.61-2.8,9.33-5.74,13.13-2.94,3.8-7.76,6.54-12.48,5.64-.07-.02-.16-.06-.26-.12-3.98-2.45,11.22-27.53,19.1-45.04.49-1.09,1.93-3.52,4.58-5.36,1.95-1.34,4.62-1.89,6.7-.75.7.84,1.64,2.25,1.83,4.11.27,2.56-1.03,4.66-2.93,7.22-4.41,5.96-7.71,8.88-7.71,8.88-11.3,11.3-12.21,15.21-21.42,20.07-2.25,1.19-4.85,2.3-8.17,2.59-2.1.18-6.54.57-10.59-2.32-3.64-2.6-4.89-6.36-5.29-7.82.43-.1,4.13-.93,6.94,1.5,2.09,1.81,2.38,4.3,2.44,4.97.5,4.97-4.12,8.61-5.66,10.08-2.63,2.51-6.31,4.87-9.69,3.53-2.41-.95-3.83-3.62-3.93-6.21-.13-3.19,1.03-5.58,2.12-7.39.46-.76,2.07-3.28,5.19-5.21,1.01-.62,1.92-1.02,2.59-1.28"/>
  <path class="st0" d="M281.32,44.47c-.31.93-1.47,4.77.55,7.91.38.59,1.56,2.43,3.34,2.52,1.3.06,2.3-.89,2.85-1.36,2.9-2.46,5.03-5.67,7.17-8.82,1.56-2.3,5.03-6.99,12.23-16.2.94-1.21,1.72-2.19,2.23-2.83-.49.8-1.15,1.93-1.9,3.3-2.61,4.76-4.27,8.63-5.04,10.88-1.84,5.38-3.68,10.75-5.52,16.13-1.97,5.75-4.16,11.81-8.92,15.58-2.39,1.89-5.28,3.06-8.24,3.79-1.43.36-2.95.61-4.38.26s-2.77-1.47-2.97-2.93c-.15-1.07.31-2.14.87-3.07,2.25-3.77,6.07-6.34,10.05-8.18,1.04-.48,2.1-.92,3.17-1.34,5.01-1.97,8.64-3.41,9.05-3.56,3.11-1.17,8.66-5.11,19.33-17.01"/>
  <path class="st0" d="M158.03,30.12c6.44-.39,12.88-.78,19.32-1.17"/>
  <path class="st0" d="M254.53,20.41c-.18-.07-.46-.15-.79-.14-.12,0-1.21.04-1.56.79-.35.73.15,1.61.64,1.97.6.44,1.41.52,2.13.36.3-.07.6-.19.81-.41.45-.48.03-1.44-.39-1.95-.49-.6-1.18-.76-1.45-.8"/>
</svg>