<?xml version="1.0" encoding="UTF-8"?>
<svg id="Layer_1" xmlns="http://www.w3.org/2000/svg" version="1.1" viewBox="0 0 321.41 65.15">
  <!-- Generator: Adobe Illustrator 30.0.0, SVG Export Plug-In . SVG Version: 2.1.1 Build 123)  -->
  <defs>
    <style>
      .st0 {
        fill: none;
        stroke: #000;
        stroke-miterlimit: 10;
      }
    </style>
  </defs>
  <path class="st0" d="M10.76,25.52c-1.79.28-3.22,1.76-5.02,2.01-2.71.39-5.1-2.35-5.23-5.09s1.38-5.28,3.12-7.4C11.73,5.21,26.45,1.49,38.26,6.28c-4.05-1.14-8.15,2.32-9.61,6.26s-1.16,8.29-1.6,12.47c-.93,8.71-5.37,16.99-12.11,22.58,5.83-2.22,10.37-6.96,13.81-12.15s5.98-10.94,9.1-16.33c1.79-3.1,3.82-6.14,6.56-8.45s6.29-3.85,9.86-3.55c-1.93-.77-4.21.33-5.41,2.02s-1.58,3.83-1.83,5.89c-.7,5.64-.8,11.38-2.24,16.87s-4.49,10.89-9.52,13.53c7.07-1.38,12.04-7.78,15.17-14.26s5.2-13.62,9.73-19.22c4.7-5.82,11.95-9.51,19.42-9.89"/>
  <path class="st0" d="M71.7,32.84c1.11-2.55,1.65-5.92-.41-7.77-2.54-2.27-6.62-.26-8.9,2.28-2.27,2.52-3.97,5.55-4.96,8.79-.7,2.32-.96,5.08.59,6.95,1.36,1.63,3.81,2.06,5.82,1.41s3.63-2.21,4.83-3.97c1.43-2.11,2.33-4.52,2.99-6.98.65-2.42,1.04-5.11-.11-7.34s-4.41-3.45-6.25-1.76c-1.29,3.4-.87,7.52,1.5,10.28s6.75,3.74,9.85,1.85c3.96-2.41,4.48-7.8,6.32-12.05,2.7,2.41,7.04,2.74,10.06.76-2.48,3.5-4.51,7.3-6.05,11.3-.68,1.78-1.24,3.88-.21,5.49,1.24,1.94,4.24,1.98,6.17.72s3.08-3.39,4.22-5.39c3.91-6.81,8.78-13.07,14.42-18.55,4.91-4.77,10.74-9.51,11.96-16.25.1-.57.15-1.22-.21-1.67-.54-.66-1.58-.48-2.38-.17-7.24,2.79-11.36,10.3-14.55,17.37-3.82,8.45-7.19,17.08-10.57,25.72,2.21-6.57,6.1-12.58,11.19-17.29,1.21-1.12,2.54-2.19,4.14-2.56s3.52.17,4.28,1.63c.76,1.46.08,3.35-1.17,4.42s-2.93,1.47-4.56,1.69c-2.06.27-4.91-.43-4.82-2.5.19,3.38.37,6.77.56,10.15.06,1.07.13,2.18.7,3.09,1.49,2.36,5.3,1.67,7.26-.32s2.87-4.78,4.64-6.94"/>
  <path class="st0" d="M152.34,11.28c2.01,1.11,4.48,1.63,6.61.79s3.67-3.33,2.92-5.5c-.62-1.81-2.52-2.86-4.36-3.37-7.34-2.01-15.85,3.04-17.6,10.44-.6,2.54-.46,5.32.81,7.6s3.82,3.9,6.41,3.7c1.03-.08,2.1-.49,2.65-1.36.83-1.31.11-3.18-1.19-4.03s-2.96-.91-4.5-.74c-9.26,1.01-16.89,10.08-16.29,19.38.18,2.78,1.14,5.72,3.4,7.35,1.81,1.31,4.14,1.58,6.37,1.69,5.68.29,11.58-.28,16.6-2.97,3.97-2.13,6.48-5.78,9.35-9.11,1.86-2.16,6.03-10.84,8.79-10.49,1.64.21,1.81,2.49,1.66,4.14-.28,3.14-.05,6.33.67,9.41.61,2.57,2.32,5.57,4.94,5.25,1.84-.22,3.02-2.02,3.94-3.63,3.38-5.93,6.76-11.86,10.14-17.78,1.58-2.77,3.87-5.93,7.04-5.64"/>
  <path class="st0" d="M183.82,24.61c-.81.19-1.43.84-1.99,1.46-5.5,6.07-10.99,12.14-16.49,18.21"/>
  <path class="st0" d="M187.5,33.37c1.8-3.06,4.24-5.74,7.12-7.82.89-.64,1.93-1.25,3.01-1.06,1.14.2,1.97,1.27,2.2,2.4s-.03,2.3-.38,3.4c-1.7,5.37-5.59,10.01-10.59,12.61-.58.3-1.32.57-1.87.21-.44-.29-.57-.86-.63-1.37-.36-2.79.12-5.68,1.37-8.2-1.46,6.41-3.8,12.68-7.54,18.09s-8.94,9.91-15.1,12.2c-1.74.65-3.66,1.12-5.45.59s-3.28-2.37-2.84-4.18"/>
  <path class="st0" d="M195.67,41.34c6.44.72,13.15-1.62,17.74-6.2,1.74-1.73,3.21-3.85,3.64-6.27.3-1.7-.41-3.96-2.14-4.05-1.22-.06-2.16,1.03-2.83,2.05-1.83,2.82-3.14,5.98-3.84,9.27-.54,2.52-.48,5.65,1.67,7.07,2.09,1.38,4.92.32,6.95-1.13,5.43-3.87,8.8-10.46,8.76-17.12,0-1.13-.73-2.68-1.77-2.22-.6.56-.41,1.62.19,2.19s1.44.75,2.25.9c2.83.5,5.7.73,8.57.67-3.21,3.83-5.4,8.5-6.31,13.42-.16.86-.26,1.82.2,2.56.56.89,1.8,1.16,2.82.88s1.86-.98,2.65-1.68c2.76-2.48,5.25-5.27,7.41-8.3,1.87-2.62,3.53-5.54,3.78-8.75-4.54,4.39-7.24,10.62-7.34,16.93-.01.69.03,1.45.47,1.98.97,1.17,2.86.42,4.09-.46,3.06-2.18,5.86-4.73,8.33-7.57"/>
  <path class="st0" d="M248.47,16.47c-.64-.53-1.7-.11-2.09.63s-.29,1.63-.13,2.45c.82.19,1.78.23,2.39-.35s.33-1.91-.51-1.88"/>
  <path class="st0" d="M250.56,36.29c3.37-1.58,6.2-4.14,8.63-6.96.7-.82,1.4-1.72,1.55-2.78.15-1.07-.48-2.31-1.55-2.46-.66-.09-1.3.24-1.85.61-2.06,1.34-3.72,3.22-5.16,5.21-1.09,1.5-2.08,3.11-2.56,4.9-.49,1.79-.43,3.79.49,5.4,1.61,2.81,5.52,3.66,8.56,2.54,3.04-1.12,5.27-3.77,6.82-6.61,1.92-3.51,3.03-7.46,3.2-11.45-.51,6.34-3.11,12.3-5.67,18.12,1.84-5.31,4.74-10.24,8.49-14.42,1.34-1.49,2.8-2.9,4.5-3.97.73-.46,1.56-.86,2.41-.73,1.34.2,2.15,1.7,2.1,3.05s-.72,2.59-1.33,3.79c-1.7,3.35-3.03,6.88-3.96,10.52-.17.68-.33,1.41-.05,2.06.29.67,1.35.58,1.7.58,2.2-.01,6.99-2.08,9.07-6.91,1.07-2.49.4-3.32,2.01-6.86,1.1-2.42,2.01-3.33,2.69-3.88.72-.57,2.65-2.09,4.93-1.51,1.31.33,3.21,1.47,3.33,3.4.11,1.77-1.34,3.57-3.5,4"/>
  <path class="st0" d="M286.09,38.13c-.02.58.02,2.02.94,3.44.95,1.48,2.28,2.07,3,2.38.52.22,2.17.87,4.22.5,1.43-.26,2.41-.91,2.99-1.27,5.02-3.13,9.37-7.33,12.67-12.24,1.08-1.61,2.08-3.4,2.07-5.33-1.51-.77-3.42-.3-4.73.77-1.31,1.07-2.11,2.64-2.71,4.22-1.39,3.66-1.8,8.04.37,11.3.45.67,1.02,1.3,1.77,1.6.56.23,1.17.26,1.78.25,5.15-.06,10.15-3.15,12.5-7.74"/>
</svg>